<?xml version="1.0" encoding="UTF-8" standalone="no"?>
<!DOCTYPE svg PUBLIC "-//W3C//DTD SVG 1.1//EN" "http://www.w3.org/Graphics/SVG/1.1/DTD/svg11.dtd">
<svg width="100%" height="100%" viewBox="0 0 514 135" version="1.1" xmlns="http://www.w3.org/2000/svg" xmlns:xlink="http://www.w3.org/1999/xlink" xml:space="preserve" xmlns:serif="http://www.serif.com/" style="fill-rule:evenodd;clip-rule:evenodd;stroke-linejoin:round;stroke-miterlimit:2;">
    <g id="Artboard1" transform="matrix(0.263326,0,0,0.316545,0,-0.691282)">
        <rect x="0" y="2.184" width="1950" height="425.816" style="fill:none;"/>
        <g transform="matrix(3.79757,0,0,3.15911,-390.264,158.191)">
            <g transform="matrix(0.285358,0,0,0.285358,-32.3892,-38.4093)">
                <path d="M1201.4,426.5C1141.8,417.3 1112.6,365.9 1115.3,275.5C1116.3,245.4 1119.5,220.2 1125.8,193.9L1128.6,182.4L1123.6,183.7C1120.8,184.4 1116.4,185 1113.8,185C1109.7,185 1108.8,185.4 1108,187.3C1107.5,188.5 1104.1,197.2 1100.4,206.5C1075.3,270.1 1046.1,314.9 1022.1,326.7C1017.8,328.8 1014.8,329.5 1008.1,329.8C981.8,331 965.1,319 956.8,292.8L953.7,283L948.6,291.5C938.2,308.8 927.5,321.1 918.3,326.6C914.4,328.9 912,329.5 905.4,329.8C888.3,330.7 876.6,324.1 866.7,307.8C863.1,301.9 857,285.1 857,281.2C857,280.2 856.7,279.1 856.4,278.7C856,278.4 851.8,283.4 847,289.8C832,309.7 817.8,322.7 806.4,326.9C796,330.8 777.5,329.1 766.8,323.3C760.5,319.9 751.9,310.6 748.7,303.8C741.7,288.9 740,278.1 740,249.1C740,224.8 741.1,209.4 744,193.5C745,188 745.6,183.3 745.4,183.1C744.8,182.5 734.9,203.2 728.3,218.8C717,245.9 708.4,274.1 707.8,286.5C707.7,288.7 708,295.2 708.4,301C709.1,311 709.1,311.7 706.8,315C701.2,323.2 691.7,326.5 676.1,325.7C663.2,325.1 658.6,323.6 653.8,318.8C646.6,311.6 646.5,310.3 646.8,253C647.3,182.7 648.7,108.8 650,94.5C654.4,43.4 664,14.6 679.5,5C684.6,1.8 692.5,1 706.8,2C726.9,3.5 738.1,7.2 746.8,15.4C754.4,22.5 757.3,29.8 757.8,43.5C758.3,56 757.2,64.7 753.5,77.6C747.8,97.2 734.5,126 714.8,161.3C704,180.7 703.6,181.8 702.5,200.6L701.9,211.5L704.8,203C719.8,160.2 734.8,136.4 751.6,128.8C757.5,126.2 770.7,125.7 778.3,127.9C785,129.8 791.1,135.6 794.5,143.1C799.3,153.9 799.7,164.6 797.1,206.2C794.3,248.9 794.5,266.5 797.9,275.2C800.3,281.4 804.1,285 808.2,285C815,285 826.6,273.3 840.5,252.5C852.3,234.7 854.4,230.2 857,215.5C863.5,179.8 881.6,147.9 903.2,133.9C916.1,125.6 928.1,123.1 947.2,124.9C962,126.2 969.2,128 978.5,132.6C997,141.6 1005.7,155.8 1004.8,175.4C1004.3,185.6 1001.8,192.1 996.1,197.4L993.1,200.3L996.3,202.4C1003.2,207 1005.9,218.7 1006,245C1006.1,262.1 1009,272.1 1015.1,275.7C1017.4,277.1 1018,277.1 1021.5,275.4C1032.6,270.2 1046.6,249.6 1061.4,216.8C1068.3,201.5 1078,177.7 1078,176.1C1078,175.5 1076.9,174.3 1075.6,173.5C1072,171.1 1065.2,161.7 1062,154.6C1057.8,145.2 1056,135.7 1056,122.1C1056,97 1062.9,78.1 1076.9,64.7C1085.5,56.5 1092.2,53.6 1103,53.6C1109.1,53.6 1112.4,54 1114.6,55.3C1119.8,58 1124.9,64.8 1127.1,72C1129.8,80.5 1130.7,97.6 1129,110.6C1127.9,119.8 1122.4,144.3 1120.1,150.2L1119.1,152.8L1125.8,150.6C1137.2,146.7 1148,141.2 1159.7,133.5C1169.6,126.9 1171.4,126 1175.5,126C1186.6,126 1190.8,139 1186,158.8C1176.7,197.7 1170.1,253.9 1171.3,283.5C1173.7,338.7 1190.5,368.2 1223.3,374.6C1231.4,376.2 1232.4,376.2 1238.7,374.6C1247.5,372.5 1256.2,368.1 1263.8,361.9C1270.2,356.8 1278.3,346.4 1280.1,341.1C1281,338.5 1281.7,338 1284.6,338C1287.6,338 1288.1,338.4 1290,342.7C1294,351.7 1296,361.8 1296,372.5C1296,389.9 1292.1,400 1281.3,410C1271.6,419.1 1259.1,424.4 1241.5,427C1232.1,428.3 1211.4,428.1 1201.4,426.5ZM929.8,274.3C933,268.2 940.8,249.2 946.7,233C949.4,225.4 950.2,221.5 950.7,213.3C951.1,206 951.7,203 952.5,203C953.3,203 954,201.2 954.3,198.8C954.5,196.4 955.6,192.5 956.6,190C959.2,183.4 959,173.8 956.1,167.3C953.9,162.4 947.3,155 945,155C944.5,155 942.2,156.6 940.1,158.5C922.2,174.7 909.8,244.4 920,271.2C921.8,276 924.5,280 926,280C926.4,280 928.1,277.4 929.8,274.3ZM721.6,104.2C731.8,80.1 738.1,54.3 736,45.8C734.8,41.3 733.7,39.4 730.8,37.2C722.3,30.5 714,63.8 708.5,126.5L708,132.5L712.6,123.5C715.2,118.6 719.2,109.9 721.6,104.2ZM1100.9,106C1107.2,81.1 1107.5,68.1 1101.5,80.4C1097.8,88 1095.1,102.4 1094.5,117.5C1094,130.1 1094,130.4 1095.5,126C1096.3,123.5 1098.8,114.5 1100.9,106Z" style="fill:rgb(117,171,46);fill-rule:nonzero;"/>
            </g>
            <g transform="matrix(0.285358,0,0,0.285358,-32.3892,-38.4093)">
                <path d="M1651.3,375.5C1622.1,367.4 1602.1,335 1596.7,287.1L1595.5,275.9L1589.8,280.8C1559.8,307 1528.8,323.6 1500,328.6C1487,330.8 1466.4,330.1 1456.5,327C1434.2,320 1416.8,302.8 1408.8,280C1407.5,276.4 1406.4,273.3 1406.3,273.1C1406.2,272.9 1401.3,277.2 1395.3,282.5C1370.6,304.6 1348.2,318.9 1326.7,326.2C1319,328.8 1315.5,329.4 1305.3,329.8C1240.4,332.4 1206.4,296.5 1209.3,228.5C1210.2,206.6 1215,188.1 1224.5,168.8C1236.5,144.6 1253.5,128.2 1271.5,123.5C1282.6,120.6 1301.5,122.1 1310.3,126.6C1325,134.1 1334.6,149.2 1338,170.2C1339.9,181.7 1338.8,206.5 1336.1,215.8C1331.6,231.1 1323.5,242.6 1313.5,247.8C1309.2,250.1 1307,250.5 1297,250.8C1289.1,251.1 1283.5,250.7 1279,249.7C1275.4,248.8 1272.3,248.4 1272.1,248.6C1271.1,249.6 1274.3,264.8 1276.8,271C1280.2,279.5 1289.2,288.9 1296.4,291.3C1319.3,299.1 1361,275.6 1393.5,236.7L1401.7,226.8L1402.3,217.6C1404.3,184.2 1419.9,147.7 1438.3,133C1449.8,123.8 1458.6,121 1475.9,121C1497.7,121 1510.6,125.4 1521.6,136.4C1532.1,147 1536.3,158.9 1536.3,178.5C1536.3,196.9 1531.8,210.8 1522.7,220.7C1516.8,227.2 1512.3,229 1502,229C1489.7,229 1482.9,225.7 1478.8,217.6C1475.9,212 1476.8,205.5 1482,194C1487.4,181.9 1491.3,167.1 1490.7,160.7C1490.3,156.3 1487.1,151 1484.9,151C1482.3,151 1476.5,158.3 1472.5,166.4C1458.2,195.3 1454.5,246.5 1464.5,273.7C1469.3,286.5 1478.7,295.6 1488.3,296.7C1505.3,298.7 1538,279.6 1568.3,250.1C1574.9,243.7 1589.4,227.6 1593.7,222C1594.4,221.1 1595.4,214.6 1596,207.5C1598.2,180.8 1603.2,142.8 1607.3,121.3L1608.7,114.2L1600.1,113.6C1534.9,109 1386.7,107 1330.5,109.9C1317.9,110.5 1300.5,111.3 1292,111.7C1274.3,112.4 1273.3,112.1 1266.3,104.8C1260.1,98.4 1258,93.6 1258,86.4L1258,80.2L1284.3,79.7C1340.3,78.5 1446,75.8 1475.5,74.9C1492.6,74.4 1531.4,74 1561.9,74.1L1617.2,74.4L1620.6,62.8C1628.8,34.3 1637.2,16.8 1644.2,13.9C1648,12.3 1662.8,13.3 1669.5,15.6C1689.4,22.4 1699,39.9 1699,69.3L1699,80.8L1703.8,81.4C1712.7,82.7 1729.5,87.2 1736,90.2C1747.6,95.4 1751.9,101.9 1750.5,112.1C1750.1,114.7 1748.6,118.7 1747.2,120.9C1744.7,124.7 1744.2,125 1740,125C1737.5,125 1726.1,123.9 1714.5,122.6C1703,121.3 1693.5,120.3 1693.5,120.4C1693.4,120.4 1691.9,125.7 1690,132C1683.1,155.8 1670.9,184 1659,203.4C1654.6,210.7 1654,212.5 1652.5,222C1644.3,277.3 1657.9,321.5 1687.5,335.5C1694.1,338.6 1703.9,341 1710.3,341L1715,341L1715,345.2C1715,353.6 1703.8,366 1690.1,372.8C1682.7,376.4 1682.4,376.5 1669.6,376.7C1660.5,376.9 1654.9,376.5 1651.3,375.5ZM1282.8,216.4C1285.8,214.3 1289.7,206.4 1292.2,197.2C1293.9,191.1 1294.3,186.4 1294.4,174.5C1294.5,158.1 1293.3,152.3 1290.4,155.1C1286.2,159.4 1278.5,185.1 1275.4,205.3C1273.9,214.6 1273.9,216.3 1275.1,217.1C1277.2,218.4 1280.3,218.2 1282.8,216.4Z" style="fill:rgb(117,171,46);fill-rule:nonzero;"/>
            </g>
            <g transform="matrix(0.285358,0,0,0.285358,-32.3892,-38.4093)">
                <path d="M540.7,332.5C517.5,328.1 501.2,313.8 497.1,294.2C496.5,291.3 496,285.1 496,280.4C496,272 496.1,271.7 499.4,268.4C502.6,265.2 503.1,265 510,265L517.3,265L525.4,273.4C529.8,278 535.5,282.8 538,284C544,287 553.6,287.8 557.9,285.6C567.1,280.8 564.5,273.9 533.8,222.9C495.4,159.3 484.7,129.3 486.3,90.1C487,70.9 489.9,59.2 497.3,44.4C507.6,24 528.1,7.6 550.5,2C562,-0.8 588,-0.9 597.2,2C622,9.6 639.8,36.7 641.7,69.5C642.6,86.1 638.9,98.9 631.5,104.6C628.1,107.2 626.7,107.5 618.9,107.8C603.9,108.4 597,103.5 597,92C596.9,84.2 594.6,72.1 592.1,66.4C589.6,60.8 584,54.7 579.9,52.9C576,51.3 572.7,52.4 567.9,56.7C559.7,64.1 555.1,75.5 554.3,90.5C553.8,99.9 554,101 556.9,108.9C561.1,120.5 568.3,133.6 585.5,161.4C610.8,202.4 620.9,222.2 626.5,241.5C631.5,259 631.7,279.7 626.8,292.7C619.7,311.8 602.6,326 579.8,331.5C570.5,333.8 550.2,334.3 540.7,332.5Z" style="fill:rgb(117,171,46);fill-rule:nonzero;"/>
            </g>
        </g>
        <g transform="matrix(11.2253,3.71689,-4.46809,9.33808,14.8691,1.38429)">
            <path d="M4.6,4.9C4.2,4 5.6,3.5 5.9,3.1C5,3.4 4.4,3.2 3.8,2.4C3.4,1.8 3,1.1 2.5,0.4C2.1,-0.1 1.6,-0.1 1.2,0.3C0.5,0.9 0.1,1.7 0,2.7C0,3.2 0.2,3.4 0.6,3.5C1.1,3.6 1.6,3.6 2,3.6C2.8,3.6 3.4,3.9 4,4.4C4.4,4.8 4.6,5 4.6,5.3L4.8,5.4C4.7,5.2 4.7,5 4.6,4.9Z" style="fill:rgb(117,171,46);fill-rule:nonzero;"/>
        </g>
        <g transform="matrix(11.0047,-4.14839,4.9868,9.15455,-3.89777,79.356)">
            <path d="M17,0.4C16.7,-0.1 16.2,-0.2 15.8,0.3C15.5,0.5 15.4,0.9 15.1,1.1C14.6,1.6 14.1,2.1 13.6,2.5C13.1,2.9 12.6,2.7 12.4,2.3L12.3,2.5C12.5,2.9 13.5,3.7 13.2,4.6L13.4,4.6C13.5,4.2 13.8,3.9 14.4,3.7C14.8,3.5 15.3,3.5 15.7,3.5C16.2,3.5 16.6,3.5 17.1,3.6C17.5,3.6 17.7,3.4 17.7,3C17.6,2 17.5,1.2 17,0.4Z" style="fill:rgb(117,171,46);fill-rule:nonzero;"/>
        </g>
        <g transform="matrix(3.79757,0,0,3.15911,1039.46,158.191)">
            <g transform="matrix(0.285358,0,0,0.285358,103.175,-38.4093)">
                <path d="M330.5,333.1C317.4,329.8 308.8,323.7 304,314.2C299.3,304.6 296.4,261.9 297.3,214C298.2,169.4 301.4,131.5 306.5,105.2C310.5,84.6 315,77.8 328.9,71.1C335.9,67.8 337.2,67.5 345.5,67.6C353.1,67.6 355.3,68 359.5,70.1C362.3,71.5 365.6,74.2 366.9,76.1C369.4,79.8 369.4,76.5 367,110.5C365.5,132.8 365.8,203.3 367.7,234.4C369.8,270 370,306.2 368.1,314.5C364.8,329.3 358,335.1 344.3,334.9C340.6,334.9 334.4,334.1 330.5,333.1Z" style="fill:rgb(117,171,46);fill-rule:nonzero;"/>
            </g>
            <g transform="matrix(0.285358,0,0,0.285358,103.175,-38.4093)">
                <path d="M160.7,326.1C152.3,320.7 144.8,306 139.9,285.4C137.6,275.7 133,249.2 132.9,244.7L132.8,241.5L132,244.5C131.5,246.2 130,252.7 128.5,259C122.5,285.8 110.6,304.5 94.5,312.4C85.8,316.6 78.7,318 65.5,318C54.8,318 52.9,317.7 48,315.4C40.8,312.1 35.2,307.3 29.5,299.8C17.2,283.4 8.1,257.7 2.8,224.6C0.9,213 0.6,205.9 0.3,163C-0,129.7 0.2,111.1 1,103.5C4.4,71.5 12.4,41.6 20,32C26.2,24.2 39.3,19 52.8,19C67,19 73.3,23.1 74.5,33.2C74.8,36.1 74.7,67.3 74.1,102.5C72.5,200.9 74.6,239.1 82.7,257.2C85.9,264.4 88.3,266.8 90.6,265C96.3,260.2 101.4,239.3 105.2,205.5C106,198 106.4,173.9 106.5,129.5L106.5,64.5L109.1,59C117.1,42.2 134.9,33.6 157.7,35.5C162.6,35.9 166.3,36.7 166.5,37.3C167.1,39.1 169.7,75.7 172.5,120C176.7,186.6 178.7,211.1 181.6,231C183.2,242.2 186.4,256 188.2,259.3C189.3,261.4 189.3,261.4 191.1,259.2C195.4,253.8 199.7,235.2 203.5,205.5C207.5,173.3 208.1,160.9 208.6,95C209,42.8 209.3,31.3 210.7,25.5C213.3,13.6 218.6,5.6 225.3,3.1C228.8,1.7 240.6,1.7 248.5,3C258.2,4.6 263,7.6 266.5,14.5C269.5,20.3 269.5,20.5 269.8,39.1L270.2,57.9L274.1,50.2C281.6,35.2 292.2,25.1 308.8,16.9C336.4,3.4 382.6,2.6 414.9,15C429.7,20.7 446.3,33.7 454.8,46.2C462.8,57.9 469.1,73.9 472.6,91.5C475.2,104.6 475.2,139 472.6,151C467.9,172.7 459.4,189.5 446.5,202.4C433.6,215.4 421.5,221.1 403.2,223C383.2,225.1 372.7,220.8 368.5,209.1C366.7,203.9 366.5,187.6 368.1,180C369.1,175.1 369.2,175 372.9,175C378.2,175 387.6,172.4 393.2,169.3C410.2,160.1 421.2,136.5 418,116.5C414.1,91.8 399.2,73.3 376.8,65.3C370.3,63 367.9,62.7 355.5,62.6C342.7,62.5 340.8,62.7 333,65.3C317.9,70.3 308.6,78.7 303.5,92.1C300.8,99 297.3,103.2 292.7,104.9C288.4,106.6 278.8,106.3 276.2,104.4C273.7,102.7 270,96 270,93.3C270,91.8 269.8,91.7 269,93C268.5,93.8 268,97.3 268,100.7C268,107.9 265.6,136.7 263.4,155.5C253.9,238.1 232.8,297.9 205.8,318.8C196.2,326.2 190.2,328.3 177,328.7C165.6,329.2 165.5,329.1 160.7,326.1Z" style="fill:rgb(117,171,46);fill-rule:nonzero;"/>
            </g>
        </g>
    </g>
</svg>
